<?xml version="1.0" encoding="UTF-8"?>
<svg width="1200pt" height="1200pt" version="1.1" viewBox="0 0 1200 1200" xmlns="http://www.w3.org/2000/svg">
 <g>
  <path d="m763.2 483.6c0 25.844-20.953 46.797-46.801 46.797-25.844 0-46.797-20.953-46.797-46.797 0-25.848 20.953-46.801 46.797-46.801 25.848 0 46.801 20.953 46.801 46.801"/>
  <path d="m1052.4 291.6-416.4-240c-26.398-15.602-60-15.602-86.398 0l-415.2 240c-26.398 15.602-43.199 44.398-43.199 74.398v480c0 31.199 16.801 60 43.199 74.398l415.2 240c13.199 7.1992 27.602 12 43.199 12 15.602 0 30-3.6016 43.199-12l415.2-240c26.398-15.602 43.199-44.398 43.199-74.398v-480c1.2031-30-15.598-58.801-42-74.398zm-700.8 556.8s40.801-174 108-108c66 67.203-108 108-108 108zm482.4-471.6c-1.1992 194.4-103.2 288-183.6 332.4l19.199 75.602-39.602 39.602-92.395-92.402c0 16.801-7.1992 32.398-19.199 45.602l-97.199-97.199c12-12 28.801-19.199 45.602-19.199l-91.199-91.199 39.602-39.602 75.602 19.199c44.398-81.602 138-182.4 332.4-183.6h12z"/>
 </g>
</svg>
